<?xml version="1.0" encoding="utf-8" standalone="no"?>
<!DOCTYPE svg PUBLIC "-//W3C//DTD SVG 1.1//EN"
  "http://www.w3.org/Graphics/SVG/1.1/DTD/svg11.dtd">
<svg xmlns:xlink="http://www.w3.org/1999/xlink" width="460.8pt" height="345.6pt" viewBox="0 0 460.8 345.6" xmlns="http://www.w3.org/2000/svg" version="1.1">
 <metadata>
  <rdf:RDF xmlns:dc="http://purl.org/dc/elements/1.1/" xmlns:cc="http://creativecommons.org/ns#" xmlns:rdf="http://www.w3.org/1999/02/22-rdf-syntax-ns#">
   <cc:Work>
    <dc:type rdf:resource="http://purl.org/dc/dcmitype/StillImage"/>
    <dc:date>2024-01-27T12:38:29.791539</dc:date>
    <dc:format>image/svg+xml</dc:format>
    <dc:creator>
     <cc:Agent>
      <dc:title>Matplotlib v3.7.2, https://matplotlib.org/</dc:title>
     </cc:Agent>
    </dc:creator>
   </cc:Work>
  </rdf:RDF>
 </metadata>
 <defs>
  <style type="text/css">*{stroke-linejoin: round; stroke-linecap: butt}</style>
 </defs>
 <g id="figure_1">
  <g id="patch_1">
   <path d="M 0 345.6 
L 460.8 345.6 
L 460.8 0 
L 0 0 
z
" style="fill: #ffffff"/>
  </g>
  <g id="axes_1">
   <g id="patch_2">
    <path d="M 57.6 307.584 
L 414.72 307.584 
L 414.72 41.472 
L 57.6 41.472 
z
" style="fill: #ffffff"/>
   </g>
   <g id="matplotlib.axis_1">
    <g id="xtick_1">
     <g id="line2d_1">
      <defs>
       <path id="mb7110bb147" d="M 0 0 
L 0 6 
" style="stroke: #262626; stroke-width: 1.25"/>
      </defs>
      <g>
       <use xlink:href="#mb7110bb147" x="146.88" y="307.584" style="fill: #262626; stroke: #262626; stroke-width: 1.25"/>
      </g>
     </g>
     <g id="text_1">
      <!-- natural_PPI_interface -->
      <g style="fill: #262626" transform="translate(88.9375 325.442281) scale(0.11 -0.11)">
       <defs>
        <path id="DejaVuSans-6e" d="M 3513 2113 
L 3513 0 
L 2938 0 
L 2938 2094 
Q 2938 2591 2744 2837 
Q 2550 3084 2163 3084 
Q 1697 3084 1428 2787 
Q 1159 2491 1159 1978 
L 1159 0 
L 581 0 
L 581 3500 
L 1159 3500 
L 1159 2956 
Q 1366 3272 1645 3428 
Q 1925 3584 2291 3584 
Q 2894 3584 3203 3211 
Q 3513 2838 3513 2113 
z
" transform="scale(0.015625)"/>
        <path id="DejaVuSans-61" d="M 2194 1759 
Q 1497 1759 1228 1600 
Q 959 1441 959 1056 
Q 959 750 1161 570 
Q 1363 391 1709 391 
Q 2188 391 2477 730 
Q 2766 1069 2766 1631 
L 2766 1759 
L 2194 1759 
z
M 3341 1997 
L 3341 0 
L 2766 0 
L 2766 531 
Q 2569 213 2275 61 
Q 1981 -91 1556 -91 
Q 1019 -91 701 211 
Q 384 513 384 1019 
Q 384 1609 779 1909 
Q 1175 2209 1959 2209 
L 2766 2209 
L 2766 2266 
Q 2766 2663 2505 2880 
Q 2244 3097 1772 3097 
Q 1472 3097 1187 3025 
Q 903 2953 641 2809 
L 641 3341 
Q 956 3463 1253 3523 
Q 1550 3584 1831 3584 
Q 2591 3584 2966 3190 
Q 3341 2797 3341 1997 
z
" transform="scale(0.015625)"/>
        <path id="DejaVuSans-74" d="M 1172 4494 
L 1172 3500 
L 2356 3500 
L 2356 3053 
L 1172 3053 
L 1172 1153 
Q 1172 725 1289 603 
Q 1406 481 1766 481 
L 2356 481 
L 2356 0 
L 1766 0 
Q 1100 0 847 248 
Q 594 497 594 1153 
L 594 3053 
L 172 3053 
L 172 3500 
L 594 3500 
L 594 4494 
L 1172 4494 
z
" transform="scale(0.015625)"/>
        <path id="DejaVuSans-75" d="M 544 1381 
L 544 3500 
L 1119 3500 
L 1119 1403 
Q 1119 906 1312 657 
Q 1506 409 1894 409 
Q 2359 409 2629 706 
Q 2900 1003 2900 1516 
L 2900 3500 
L 3475 3500 
L 3475 0 
L 2900 0 
L 2900 538 
Q 2691 219 2414 64 
Q 2138 -91 1772 -91 
Q 1169 -91 856 284 
Q 544 659 544 1381 
z
M 1991 3584 
L 1991 3584 
z
" transform="scale(0.015625)"/>
        <path id="DejaVuSans-72" d="M 2631 2963 
Q 2534 3019 2420 3045 
Q 2306 3072 2169 3072 
Q 1681 3072 1420 2755 
Q 1159 2438 1159 1844 
L 1159 0 
L 581 0 
L 581 3500 
L 1159 3500 
L 1159 2956 
Q 1341 3275 1631 3429 
Q 1922 3584 2338 3584 
Q 2397 3584 2469 3576 
Q 2541 3569 2628 3553 
L 2631 2963 
z
" transform="scale(0.015625)"/>
        <path id="DejaVuSans-6c" d="M 603 4863 
L 1178 4863 
L 1178 0 
L 603 0 
L 603 4863 
z
" transform="scale(0.015625)"/>
        <path id="DejaVuSans-5f" d="M 3263 -1063 
L 3263 -1509 
L -63 -1509 
L -63 -1063 
L 3263 -1063 
z
" transform="scale(0.015625)"/>
        <path id="DejaVuSans-50" d="M 1259 4147 
L 1259 2394 
L 2053 2394 
Q 2494 2394 2734 2622 
Q 2975 2850 2975 3272 
Q 2975 3691 2734 3919 
Q 2494 4147 2053 4147 
L 1259 4147 
z
M 628 4666 
L 2053 4666 
Q 2838 4666 3239 4311 
Q 3641 3956 3641 3272 
Q 3641 2581 3239 2228 
Q 2838 1875 2053 1875 
L 1259 1875 
L 1259 0 
L 628 0 
L 628 4666 
z
" transform="scale(0.015625)"/>
        <path id="DejaVuSans-49" d="M 628 4666 
L 1259 4666 
L 1259 0 
L 628 0 
L 628 4666 
z
" transform="scale(0.015625)"/>
        <path id="DejaVuSans-69" d="M 603 3500 
L 1178 3500 
L 1178 0 
L 603 0 
L 603 3500 
z
M 603 4863 
L 1178 4863 
L 1178 4134 
L 603 4134 
L 603 4863 
z
" transform="scale(0.015625)"/>
        <path id="DejaVuSans-65" d="M 3597 1894 
L 3597 1613 
L 953 1613 
Q 991 1019 1311 708 
Q 1631 397 2203 397 
Q 2534 397 2845 478 
Q 3156 559 3463 722 
L 3463 178 
Q 3153 47 2828 -22 
Q 2503 -91 2169 -91 
Q 1331 -91 842 396 
Q 353 884 353 1716 
Q 353 2575 817 3079 
Q 1281 3584 2069 3584 
Q 2775 3584 3186 3129 
Q 3597 2675 3597 1894 
z
M 3022 2063 
Q 3016 2534 2758 2815 
Q 2500 3097 2075 3097 
Q 1594 3097 1305 2825 
Q 1016 2553 972 2059 
L 3022 2063 
z
" transform="scale(0.015625)"/>
        <path id="DejaVuSans-66" d="M 2375 4863 
L 2375 4384 
L 1825 4384 
Q 1516 4384 1395 4259 
Q 1275 4134 1275 3809 
L 1275 3500 
L 2222 3500 
L 2222 3053 
L 1275 3053 
L 1275 0 
L 697 0 
L 697 3053 
L 147 3053 
L 147 3500 
L 697 3500 
L 697 3744 
Q 697 4328 969 4595 
Q 1241 4863 1831 4863 
L 2375 4863 
z
" transform="scale(0.015625)"/>
        <path id="DejaVuSans-63" d="M 3122 3366 
L 3122 2828 
Q 2878 2963 2633 3030 
Q 2388 3097 2138 3097 
Q 1578 3097 1268 2742 
Q 959 2388 959 1747 
Q 959 1106 1268 751 
Q 1578 397 2138 397 
Q 2388 397 2633 464 
Q 2878 531 3122 666 
L 3122 134 
Q 2881 22 2623 -34 
Q 2366 -91 2075 -91 
Q 1284 -91 818 406 
Q 353 903 353 1747 
Q 353 2603 823 3093 
Q 1294 3584 2113 3584 
Q 2378 3584 2631 3529 
Q 2884 3475 3122 3366 
z
" transform="scale(0.015625)"/>
       </defs>
       <use xlink:href="#DejaVuSans-6e"/>
       <use xlink:href="#DejaVuSans-61" x="63.378906"/>
       <use xlink:href="#DejaVuSans-74" x="124.658203"/>
       <use xlink:href="#DejaVuSans-75" x="163.867188"/>
       <use xlink:href="#DejaVuSans-72" x="227.246094"/>
       <use xlink:href="#DejaVuSans-61" x="268.359375"/>
       <use xlink:href="#DejaVuSans-6c" x="329.638672"/>
       <use xlink:href="#DejaVuSans-5f" x="357.421875"/>
       <use xlink:href="#DejaVuSans-50" x="407.421875"/>
       <use xlink:href="#DejaVuSans-50" x="467.724609"/>
       <use xlink:href="#DejaVuSans-49" x="528.027344"/>
       <use xlink:href="#DejaVuSans-5f" x="557.519531"/>
       <use xlink:href="#DejaVuSans-69" x="607.519531"/>
       <use xlink:href="#DejaVuSans-6e" x="635.302734"/>
       <use xlink:href="#DejaVuSans-74" x="698.681641"/>
       <use xlink:href="#DejaVuSans-65" x="737.890625"/>
       <use xlink:href="#DejaVuSans-72" x="799.414062"/>
       <use xlink:href="#DejaVuSans-66" x="840.527344"/>
       <use xlink:href="#DejaVuSans-61" x="875.732422"/>
       <use xlink:href="#DejaVuSans-63" x="937.011719"/>
       <use xlink:href="#DejaVuSans-65" x="991.992188"/>
      </g>
     </g>
    </g>
    <g id="xtick_2">
     <g id="line2d_2">
      <g>
       <use xlink:href="#mb7110bb147" x="325.44" y="307.584" style="fill: #262626; stroke: #262626; stroke-width: 1.25"/>
      </g>
     </g>
     <g id="text_2">
      <!-- de_novo_PPI_interface -->
      <g style="fill: #262626" transform="translate(264.057422 325.442281) scale(0.11 -0.11)">
       <defs>
        <path id="DejaVuSans-64" d="M 2906 2969 
L 2906 4863 
L 3481 4863 
L 3481 0 
L 2906 0 
L 2906 525 
Q 2725 213 2448 61 
Q 2172 -91 1784 -91 
Q 1150 -91 751 415 
Q 353 922 353 1747 
Q 353 2572 751 3078 
Q 1150 3584 1784 3584 
Q 2172 3584 2448 3432 
Q 2725 3281 2906 2969 
z
M 947 1747 
Q 947 1113 1208 752 
Q 1469 391 1925 391 
Q 2381 391 2643 752 
Q 2906 1113 2906 1747 
Q 2906 2381 2643 2742 
Q 2381 3103 1925 3103 
Q 1469 3103 1208 2742 
Q 947 2381 947 1747 
z
" transform="scale(0.015625)"/>
        <path id="DejaVuSans-6f" d="M 1959 3097 
Q 1497 3097 1228 2736 
Q 959 2375 959 1747 
Q 959 1119 1226 758 
Q 1494 397 1959 397 
Q 2419 397 2687 759 
Q 2956 1122 2956 1747 
Q 2956 2369 2687 2733 
Q 2419 3097 1959 3097 
z
M 1959 3584 
Q 2709 3584 3137 3096 
Q 3566 2609 3566 1747 
Q 3566 888 3137 398 
Q 2709 -91 1959 -91 
Q 1206 -91 779 398 
Q 353 888 353 1747 
Q 353 2609 779 3096 
Q 1206 3584 1959 3584 
z
" transform="scale(0.015625)"/>
        <path id="DejaVuSans-76" d="M 191 3500 
L 800 3500 
L 1894 563 
L 2988 3500 
L 3597 3500 
L 2284 0 
L 1503 0 
L 191 3500 
z
" transform="scale(0.015625)"/>
       </defs>
       <use xlink:href="#DejaVuSans-64"/>
       <use xlink:href="#DejaVuSans-65" x="63.476562"/>
       <use xlink:href="#DejaVuSans-5f" x="125"/>
       <use xlink:href="#DejaVuSans-6e" x="175"/>
       <use xlink:href="#DejaVuSans-6f" x="238.378906"/>
       <use xlink:href="#DejaVuSans-76" x="299.560547"/>
       <use xlink:href="#DejaVuSans-6f" x="358.740234"/>
       <use xlink:href="#DejaVuSans-5f" x="419.921875"/>
       <use xlink:href="#DejaVuSans-50" x="469.921875"/>
       <use xlink:href="#DejaVuSans-50" x="530.224609"/>
       <use xlink:href="#DejaVuSans-49" x="590.527344"/>
       <use xlink:href="#DejaVuSans-5f" x="620.019531"/>
       <use xlink:href="#DejaVuSans-69" x="670.019531"/>
       <use xlink:href="#DejaVuSans-6e" x="697.802734"/>
       <use xlink:href="#DejaVuSans-74" x="761.181641"/>
       <use xlink:href="#DejaVuSans-65" x="800.390625"/>
       <use xlink:href="#DejaVuSans-72" x="861.914062"/>
       <use xlink:href="#DejaVuSans-66" x="903.027344"/>
       <use xlink:href="#DejaVuSans-61" x="938.232422"/>
       <use xlink:href="#DejaVuSans-63" x="999.511719"/>
       <use xlink:href="#DejaVuSans-65" x="1054.492188"/>
      </g>
     </g>
    </g>
    <g id="text_3">
     <!-- type -->
     <g style="fill: #262626" transform="translate(222.755625 341.154) scale(0.12 -0.12)">
      <defs>
       <path id="DejaVuSans-79" d="M 2059 -325 
Q 1816 -950 1584 -1140 
Q 1353 -1331 966 -1331 
L 506 -1331 
L 506 -850 
L 844 -850 
Q 1081 -850 1212 -737 
Q 1344 -625 1503 -206 
L 1606 56 
L 191 3500 
L 800 3500 
L 1894 763 
L 2988 3500 
L 3597 3500 
L 2059 -325 
z
" transform="scale(0.015625)"/>
       <path id="DejaVuSans-70" d="M 1159 525 
L 1159 -1331 
L 581 -1331 
L 581 3500 
L 1159 3500 
L 1159 2969 
Q 1341 3281 1617 3432 
Q 1894 3584 2278 3584 
Q 2916 3584 3314 3078 
Q 3713 2572 3713 1747 
Q 3713 922 3314 415 
Q 2916 -91 2278 -91 
Q 1894 -91 1617 61 
Q 1341 213 1159 525 
z
M 3116 1747 
Q 3116 2381 2855 2742 
Q 2594 3103 2138 3103 
Q 1681 3103 1420 2742 
Q 1159 2381 1159 1747 
Q 1159 1113 1420 752 
Q 1681 391 2138 391 
Q 2594 391 2855 752 
Q 3116 1113 3116 1747 
z
" transform="scale(0.015625)"/>
      </defs>
      <use xlink:href="#DejaVuSans-74"/>
      <use xlink:href="#DejaVuSans-79" x="39.208984"/>
      <use xlink:href="#DejaVuSans-70" x="98.388672"/>
      <use xlink:href="#DejaVuSans-65" x="161.865234"/>
     </g>
    </g>
   </g>
   <g id="matplotlib.axis_2">
    <g id="ytick_1">
     <g id="line2d_3">
      <defs>
       <path id="m82af57d5f8" d="M 0 0 
L -6 0 
" style="stroke: #262626; stroke-width: 1.25"/>
      </defs>
      <g>
       <use xlink:href="#m82af57d5f8" x="57.6" y="307.584" style="fill: #262626; stroke: #262626; stroke-width: 1.25"/>
      </g>
     </g>
     <g id="text_4">
      <!-- 0 -->
      <g style="fill: #262626" transform="translate(41.10125 311.763141) scale(0.11 -0.11)">
       <defs>
        <path id="DejaVuSans-30" d="M 2034 4250 
Q 1547 4250 1301 3770 
Q 1056 3291 1056 2328 
Q 1056 1369 1301 889 
Q 1547 409 2034 409 
Q 2525 409 2770 889 
Q 3016 1369 3016 2328 
Q 3016 3291 2770 3770 
Q 2525 4250 2034 4250 
z
M 2034 4750 
Q 2819 4750 3233 4129 
Q 3647 3509 3647 2328 
Q 3647 1150 3233 529 
Q 2819 -91 2034 -91 
Q 1250 -91 836 529 
Q 422 1150 422 2328 
Q 422 3509 836 4129 
Q 1250 4750 2034 4750 
z
" transform="scale(0.015625)"/>
       </defs>
       <use xlink:href="#DejaVuSans-30"/>
      </g>
     </g>
    </g>
    <g id="ytick_2">
     <g id="line2d_4">
      <g>
       <use xlink:href="#m82af57d5f8" x="57.6" y="274.32" style="fill: #262626; stroke: #262626; stroke-width: 1.25"/>
      </g>
     </g>
     <g id="text_5">
      <!-- 10 -->
      <g style="fill: #262626" transform="translate(34.1025 278.499141) scale(0.11 -0.11)">
       <defs>
        <path id="DejaVuSans-31" d="M 794 531 
L 1825 531 
L 1825 4091 
L 703 3866 
L 703 4441 
L 1819 4666 
L 2450 4666 
L 2450 531 
L 3481 531 
L 3481 0 
L 794 0 
L 794 531 
z
" transform="scale(0.015625)"/>
       </defs>
       <use xlink:href="#DejaVuSans-31"/>
       <use xlink:href="#DejaVuSans-30" x="63.623047"/>
      </g>
     </g>
    </g>
    <g id="ytick_3">
     <g id="line2d_5">
      <g>
       <use xlink:href="#m82af57d5f8" x="57.6" y="241.056" style="fill: #262626; stroke: #262626; stroke-width: 1.25"/>
      </g>
     </g>
     <g id="text_6">
      <!-- 20 -->
      <g style="fill: #262626" transform="translate(34.1025 245.235141) scale(0.11 -0.11)">
       <defs>
        <path id="DejaVuSans-32" d="M 1228 531 
L 3431 531 
L 3431 0 
L 469 0 
L 469 531 
Q 828 903 1448 1529 
Q 2069 2156 2228 2338 
Q 2531 2678 2651 2914 
Q 2772 3150 2772 3378 
Q 2772 3750 2511 3984 
Q 2250 4219 1831 4219 
Q 1534 4219 1204 4116 
Q 875 4013 500 3803 
L 500 4441 
Q 881 4594 1212 4672 
Q 1544 4750 1819 4750 
Q 2544 4750 2975 4387 
Q 3406 4025 3406 3419 
Q 3406 3131 3298 2873 
Q 3191 2616 2906 2266 
Q 2828 2175 2409 1742 
Q 1991 1309 1228 531 
z
" transform="scale(0.015625)"/>
       </defs>
       <use xlink:href="#DejaVuSans-32"/>
       <use xlink:href="#DejaVuSans-30" x="63.623047"/>
      </g>
     </g>
    </g>
    <g id="ytick_4">
     <g id="line2d_6">
      <g>
       <use xlink:href="#m82af57d5f8" x="57.6" y="207.792" style="fill: #262626; stroke: #262626; stroke-width: 1.25"/>
      </g>
     </g>
     <g id="text_7">
      <!-- 30 -->
      <g style="fill: #262626" transform="translate(34.1025 211.971141) scale(0.11 -0.11)">
       <defs>
        <path id="DejaVuSans-33" d="M 2597 2516 
Q 3050 2419 3304 2112 
Q 3559 1806 3559 1356 
Q 3559 666 3084 287 
Q 2609 -91 1734 -91 
Q 1441 -91 1130 -33 
Q 819 25 488 141 
L 488 750 
Q 750 597 1062 519 
Q 1375 441 1716 441 
Q 2309 441 2620 675 
Q 2931 909 2931 1356 
Q 2931 1769 2642 2001 
Q 2353 2234 1838 2234 
L 1294 2234 
L 1294 2753 
L 1863 2753 
Q 2328 2753 2575 2939 
Q 2822 3125 2822 3475 
Q 2822 3834 2567 4026 
Q 2313 4219 1838 4219 
Q 1578 4219 1281 4162 
Q 984 4106 628 3988 
L 628 4550 
Q 988 4650 1302 4700 
Q 1616 4750 1894 4750 
Q 2613 4750 3031 4423 
Q 3450 4097 3450 3541 
Q 3450 3153 3228 2886 
Q 3006 2619 2597 2516 
z
" transform="scale(0.015625)"/>
       </defs>
       <use xlink:href="#DejaVuSans-33"/>
       <use xlink:href="#DejaVuSans-30" x="63.623047"/>
      </g>
     </g>
    </g>
    <g id="ytick_5">
     <g id="line2d_7">
      <g>
       <use xlink:href="#m82af57d5f8" x="57.6" y="174.528" style="fill: #262626; stroke: #262626; stroke-width: 1.25"/>
      </g>
     </g>
     <g id="text_8">
      <!-- 40 -->
      <g style="fill: #262626" transform="translate(34.1025 178.707141) scale(0.11 -0.11)">
       <defs>
        <path id="DejaVuSans-34" d="M 2419 4116 
L 825 1625 
L 2419 1625 
L 2419 4116 
z
M 2253 4666 
L 3047 4666 
L 3047 1625 
L 3713 1625 
L 3713 1100 
L 3047 1100 
L 3047 0 
L 2419 0 
L 2419 1100 
L 313 1100 
L 313 1709 
L 2253 4666 
z
" transform="scale(0.015625)"/>
       </defs>
       <use xlink:href="#DejaVuSans-34"/>
       <use xlink:href="#DejaVuSans-30" x="63.623047"/>
      </g>
     </g>
    </g>
    <g id="ytick_6">
     <g id="line2d_8">
      <g>
       <use xlink:href="#m82af57d5f8" x="57.6" y="141.264" style="fill: #262626; stroke: #262626; stroke-width: 1.25"/>
      </g>
     </g>
     <g id="text_9">
      <!-- 50 -->
      <g style="fill: #262626" transform="translate(34.1025 145.443141) scale(0.11 -0.11)">
       <defs>
        <path id="DejaVuSans-35" d="M 691 4666 
L 3169 4666 
L 3169 4134 
L 1269 4134 
L 1269 2991 
Q 1406 3038 1543 3061 
Q 1681 3084 1819 3084 
Q 2600 3084 3056 2656 
Q 3513 2228 3513 1497 
Q 3513 744 3044 326 
Q 2575 -91 1722 -91 
Q 1428 -91 1123 -41 
Q 819 9 494 109 
L 494 744 
Q 775 591 1075 516 
Q 1375 441 1709 441 
Q 2250 441 2565 725 
Q 2881 1009 2881 1497 
Q 2881 1984 2565 2268 
Q 2250 2553 1709 2553 
Q 1456 2553 1204 2497 
Q 953 2441 691 2322 
L 691 4666 
z
" transform="scale(0.015625)"/>
       </defs>
       <use xlink:href="#DejaVuSans-35"/>
       <use xlink:href="#DejaVuSans-30" x="63.623047"/>
      </g>
     </g>
    </g>
    <g id="ytick_7">
     <g id="line2d_9">
      <g>
       <use xlink:href="#m82af57d5f8" x="57.6" y="108" style="fill: #262626; stroke: #262626; stroke-width: 1.25"/>
      </g>
     </g>
     <g id="text_10">
      <!-- 60 -->
      <g style="fill: #262626" transform="translate(34.1025 112.179141) scale(0.11 -0.11)">
       <defs>
        <path id="DejaVuSans-36" d="M 2113 2584 
Q 1688 2584 1439 2293 
Q 1191 2003 1191 1497 
Q 1191 994 1439 701 
Q 1688 409 2113 409 
Q 2538 409 2786 701 
Q 3034 994 3034 1497 
Q 3034 2003 2786 2293 
Q 2538 2584 2113 2584 
z
M 3366 4563 
L 3366 3988 
Q 3128 4100 2886 4159 
Q 2644 4219 2406 4219 
Q 1781 4219 1451 3797 
Q 1122 3375 1075 2522 
Q 1259 2794 1537 2939 
Q 1816 3084 2150 3084 
Q 2853 3084 3261 2657 
Q 3669 2231 3669 1497 
Q 3669 778 3244 343 
Q 2819 -91 2113 -91 
Q 1303 -91 875 529 
Q 447 1150 447 2328 
Q 447 3434 972 4092 
Q 1497 4750 2381 4750 
Q 2619 4750 2861 4703 
Q 3103 4656 3366 4563 
z
" transform="scale(0.015625)"/>
       </defs>
       <use xlink:href="#DejaVuSans-36"/>
       <use xlink:href="#DejaVuSans-30" x="63.623047"/>
      </g>
     </g>
    </g>
    <g id="ytick_8">
     <g id="line2d_10">
      <g>
       <use xlink:href="#m82af57d5f8" x="57.6" y="74.736" style="fill: #262626; stroke: #262626; stroke-width: 1.25"/>
      </g>
     </g>
     <g id="text_11">
      <!-- 70 -->
      <g style="fill: #262626" transform="translate(34.1025 78.915141) scale(0.11 -0.11)">
       <defs>
        <path id="DejaVuSans-37" d="M 525 4666 
L 3525 4666 
L 3525 4397 
L 1831 0 
L 1172 0 
L 2766 4134 
L 525 4134 
L 525 4666 
z
" transform="scale(0.015625)"/>
       </defs>
       <use xlink:href="#DejaVuSans-37"/>
       <use xlink:href="#DejaVuSans-30" x="63.623047"/>
      </g>
     </g>
    </g>
    <g id="ytick_9">
     <g id="line2d_11">
      <g>
       <use xlink:href="#m82af57d5f8" x="57.6" y="41.472" style="fill: #262626; stroke: #262626; stroke-width: 1.25"/>
      </g>
     </g>
     <g id="text_12">
      <!-- 80 -->
      <g style="fill: #262626" transform="translate(34.1025 45.651141) scale(0.11 -0.11)">
       <defs>
        <path id="DejaVuSans-38" d="M 2034 2216 
Q 1584 2216 1326 1975 
Q 1069 1734 1069 1313 
Q 1069 891 1326 650 
Q 1584 409 2034 409 
Q 2484 409 2743 651 
Q 3003 894 3003 1313 
Q 3003 1734 2745 1975 
Q 2488 2216 2034 2216 
z
M 1403 2484 
Q 997 2584 770 2862 
Q 544 3141 544 3541 
Q 544 4100 942 4425 
Q 1341 4750 2034 4750 
Q 2731 4750 3128 4425 
Q 3525 4100 3525 3541 
Q 3525 3141 3298 2862 
Q 3072 2584 2669 2484 
Q 3125 2378 3379 2068 
Q 3634 1759 3634 1313 
Q 3634 634 3220 271 
Q 2806 -91 2034 -91 
Q 1263 -91 848 271 
Q 434 634 434 1313 
Q 434 1759 690 2068 
Q 947 2378 1403 2484 
z
M 1172 3481 
Q 1172 3119 1398 2916 
Q 1625 2713 2034 2713 
Q 2441 2713 2670 2916 
Q 2900 3119 2900 3481 
Q 2900 3844 2670 4047 
Q 2441 4250 2034 4250 
Q 1625 4250 1398 4047 
Q 1172 3844 1172 3481 
z
" transform="scale(0.015625)"/>
       </defs>
       <use xlink:href="#DejaVuSans-38"/>
       <use xlink:href="#DejaVuSans-30" x="63.623047"/>
      </g>
     </g>
    </g>
    <g id="text_13">
     <!-- nres_interface -->
     <g style="fill: #262626" transform="translate(27.273125 217.239562) rotate(-90) scale(0.12 -0.12)">
      <defs>
       <path id="DejaVuSans-73" d="M 2834 3397 
L 2834 2853 
Q 2591 2978 2328 3040 
Q 2066 3103 1784 3103 
Q 1356 3103 1142 2972 
Q 928 2841 928 2578 
Q 928 2378 1081 2264 
Q 1234 2150 1697 2047 
L 1894 2003 
Q 2506 1872 2764 1633 
Q 3022 1394 3022 966 
Q 3022 478 2636 193 
Q 2250 -91 1575 -91 
Q 1294 -91 989 -36 
Q 684 19 347 128 
L 347 722 
Q 666 556 975 473 
Q 1284 391 1588 391 
Q 1994 391 2212 530 
Q 2431 669 2431 922 
Q 2431 1156 2273 1281 
Q 2116 1406 1581 1522 
L 1381 1569 
Q 847 1681 609 1914 
Q 372 2147 372 2553 
Q 372 3047 722 3315 
Q 1072 3584 1716 3584 
Q 2034 3584 2315 3537 
Q 2597 3491 2834 3397 
z
" transform="scale(0.015625)"/>
      </defs>
      <use xlink:href="#DejaVuSans-6e"/>
      <use xlink:href="#DejaVuSans-72" x="63.378906"/>
      <use xlink:href="#DejaVuSans-65" x="102.242188"/>
      <use xlink:href="#DejaVuSans-73" x="163.765625"/>
      <use xlink:href="#DejaVuSans-5f" x="215.865234"/>
      <use xlink:href="#DejaVuSans-69" x="265.865234"/>
      <use xlink:href="#DejaVuSans-6e" x="293.648438"/>
      <use xlink:href="#DejaVuSans-74" x="357.027344"/>
      <use xlink:href="#DejaVuSans-65" x="396.236328"/>
      <use xlink:href="#DejaVuSans-72" x="457.759766"/>
      <use xlink:href="#DejaVuSans-66" x="498.873047"/>
      <use xlink:href="#DejaVuSans-61" x="534.078125"/>
      <use xlink:href="#DejaVuSans-63" x="595.357422"/>
      <use xlink:href="#DejaVuSans-65" x="650.337891"/>
     </g>
    </g>
   </g>
   <g id="PolyCollection_1">
    <defs>
     <path id="m642803be21" d="M 146.897012 -25.934709 
L 146.862988 -25.934709 
L 146.848235 -28.497176 
L 146.826168 -31.059642 
L 146.796162 -33.622109 
L 146.757378 -36.184575 
L 146.705931 -38.747042 
L 146.630879 -41.309508 
L 146.511312 -43.871975 
L 146.317169 -46.434441 
L 146.014319 -48.996907 
L 145.571031 -51.559374 
L 144.961076 -54.12184 
L 144.16072 -56.684307 
L 143.141659 -59.246773 
L 141.865733 -61.80924 
L 140.287242 -64.371706 
L 138.365686 -66.934173 
L 136.087847 -69.496639 
L 133.493047 -72.059106 
L 130.688807 -74.621572 
L 127.841411 -77.184039 
L 125.135727 -79.746505 
L 122.720276 -82.308972 
L 120.669329 -84.871438 
L 118.984773 -87.433905 
L 117.630515 -89.996371 
L 116.569151 -92.558838 
L 115.777315 -95.121304 
L 115.243283 -97.683771 
L 114.966699 -100.246237 
L 114.968335 -102.808704 
L 115.294301 -105.37117 
L 115.995304 -107.933637 
L 117.0854 -110.496103 
L 118.510958 -113.05857 
L 120.158388 -115.621036 
L 121.897686 -118.183502 
L 123.628593 -120.745969 
L 125.296725 -123.308435 
L 126.876486 -125.870902 
L 128.346197 -128.433368 
L 129.682537 -130.995835 
L 130.877761 -133.558301 
L 131.959346 -136.120768 
L 132.989151 -138.683234 
L 134.037564 -141.245701 
L 135.14881 -143.808167 
L 136.319541 -146.370634 
L 137.501629 -148.9331 
L 138.623517 -151.495567 
L 139.615737 -154.058033 
L 140.429542 -156.6205 
L 141.046324 -159.182966 
L 141.480413 -161.745433 
L 141.776087 -164.307899 
L 141.996824 -166.870366 
L 142.207 -169.432832 
L 142.452488 -171.995299 
L 142.750126 -174.557765 
L 143.091736 -177.120232 
L 143.458816 -179.682698 
L 143.836931 -182.245165 
L 144.220211 -184.807631 
L 144.605203 -187.370098 
L 144.982031 -189.932564 
L 145.332138 -192.49503 
L 145.635117 -195.057497 
L 145.878877 -197.619963 
L 146.064894 -200.18243 
L 146.204779 -202.744896 
L 146.311097 -205.307363 
L 146.38901 -207.869829 
L 146.434179 -210.432296 
L 146.438279 -212.994762 
L 146.398844 -215.557229 
L 146.327254 -218.119695 
L 146.249021 -220.682162 
L 146.194844 -223.244628 
L 146.187144 -225.807095 
L 146.230366 -228.369561 
L 146.310962 -230.932028 
L 146.406286 -233.494494 
L 146.496007 -236.056961 
L 146.569337 -238.619427 
L 146.625481 -241.181894 
L 146.669191 -243.74436 
L 146.705265 -246.306827 
L 146.735157 -248.869293 
L 146.756952 -251.43176 
L 146.767956 -253.994226 
L 146.7679 -256.556693 
L 146.76059 -259.119159 
L 146.752932 -261.681625 
L 146.751905 -264.244092 
L 146.761345 -266.806558 
L 146.780475 -269.369025 
L 146.804899 -271.931491 
L 146.829161 -274.493958 
L 146.849162 -277.056424 
L 146.863247 -279.618891 
L 146.896753 -279.618891 
L 146.896753 -279.618891 
L 146.910838 -277.056424 
L 146.930839 -274.493958 
L 146.955101 -271.931491 
L 146.979525 -269.369025 
L 146.998655 -266.806558 
L 147.008095 -264.244092 
L 147.007068 -261.681625 
L 146.99941 -259.119159 
L 146.9921 -256.556693 
L 146.992044 -253.994226 
L 147.003048 -251.43176 
L 147.024843 -248.869293 
L 147.054735 -246.306827 
L 147.090809 -243.74436 
L 147.134519 -241.181894 
L 147.190663 -238.619427 
L 147.263993 -236.056961 
L 147.353714 -233.494494 
L 147.449038 -230.932028 
L 147.529634 -228.369561 
L 147.572856 -225.807095 
L 147.565156 -223.244628 
L 147.510979 -220.682162 
L 147.432746 -218.119695 
L 147.361156 -215.557229 
L 147.321721 -212.994762 
L 147.325821 -210.432296 
L 147.37099 -207.869829 
L 147.448903 -205.307363 
L 147.555221 -202.744896 
L 147.695106 -200.18243 
L 147.881123 -197.619963 
L 148.124883 -195.057497 
L 148.427862 -192.49503 
L 148.777969 -189.932564 
L 149.154797 -187.370098 
L 149.539789 -184.807631 
L 149.923069 -182.245165 
L 150.301184 -179.682698 
L 150.668264 -177.120232 
L 151.009874 -174.557765 
L 151.307512 -171.995299 
L 151.553 -169.432832 
L 151.763176 -166.870366 
L 151.983913 -164.307899 
L 152.279587 -161.745433 
L 152.713676 -159.182966 
L 153.330458 -156.6205 
L 154.144263 -154.058033 
L 155.136483 -151.495567 
L 156.258371 -148.9331 
L 157.440459 -146.370634 
L 158.61119 -143.808167 
L 159.722436 -141.245701 
L 160.770849 -138.683234 
L 161.800654 -136.120768 
L 162.882239 -133.558301 
L 164.077463 -130.995835 
L 165.413803 -128.433368 
L 166.883514 -125.870902 
L 168.463275 -123.308435 
L 170.131407 -120.745969 
L 171.862314 -118.183502 
L 173.601612 -115.621036 
L 175.249042 -113.05857 
L 176.6746 -110.496103 
L 177.764696 -107.933637 
L 178.465699 -105.37117 
L 178.791665 -102.808704 
L 178.793301 -100.246237 
L 178.516717 -97.683771 
L 177.982685 -95.121304 
L 177.190849 -92.558838 
L 176.129485 -89.996371 
L 174.775227 -87.433905 
L 173.090671 -84.871438 
L 171.039724 -82.308972 
L 168.624273 -79.746505 
L 165.918589 -77.184039 
L 163.071193 -74.621572 
L 160.266953 -72.059106 
L 157.672153 -69.496639 
L 155.394314 -66.934173 
L 153.472758 -64.371706 
L 151.894267 -61.80924 
L 150.618341 -59.246773 
L 149.59928 -56.684307 
L 148.798924 -54.12184 
L 148.188969 -51.559374 
L 147.745681 -48.996907 
L 147.442831 -46.434441 
L 147.248688 -43.871975 
L 147.129121 -41.309508 
L 147.054069 -38.747042 
L 147.002622 -36.184575 
L 146.963838 -33.622109 
L 146.933832 -31.059642 
L 146.911765 -28.497176 
L 146.897012 -25.934709 
z
" style="stroke: #4c4c4c; stroke-width: 1.5"/>
    </defs>
    <g clip-path="url(#p9c68a93c1e)">
     <use xlink:href="#m642803be21" x="0" y="345.6" style="fill: #5875a4; stroke: #4c4c4c; stroke-width: 1.5"/>
    </g>
   </g>
   <g id="PolyCollection_2">
    <defs>
     <path id="me967102b59" d="M 326.758296 -53.379824 
L 324.121704 -53.379824 
L 323.758302 -54.211843 
L 323.31878 -55.043863 
L 322.79385 -55.875883 
L 322.17462 -56.707902 
L 321.452907 -57.539922 
L 320.621535 -58.371942 
L 319.674566 -59.203962 
L 318.607442 -60.035981 
L 317.417026 -60.868001 
L 316.101506 -61.700021 
L 314.660185 -62.532041 
L 313.093176 -63.36406 
L 311.401017 -64.19608 
L 309.584295 -65.0281 
L 307.643306 -65.860119 
L 305.577854 -66.692139 
L 303.38723 -67.524159 
L 301.070425 -68.356179 
L 298.626626 -69.188198 
L 296.055958 -70.020218 
L 293.360471 -70.852238 
L 290.545276 -71.684258 
L 287.619752 -72.516277 
L 284.598683 -73.348297 
L 281.503216 -74.180317 
L 278.3615 -75.012336 
L 275.2089 -75.844356 
L 272.087725 -76.676376 
L 269.046417 -77.508396 
L 266.138228 -78.340415 
L 263.419438 -79.172435 
L 260.947219 -80.004455 
L 258.777272 -80.836475 
L 256.961409 -81.668494 
L 255.545214 -82.500514 
L 254.565961 -83.332534 
L 254.050896 -84.164553 
L 254.016 -84.996573 
L 254.465278 -85.828593 
L 255.390605 -86.660613 
L 256.772105 -87.492632 
L 258.579029 -88.324652 
L 260.771038 -89.156672 
L 263.29982 -89.988692 
L 266.110941 -90.820711 
L 269.145823 -91.652731 
L 272.343766 -92.484751 
L 275.643928 -93.31677 
L 278.987188 -94.14879 
L 282.317839 -94.98081 
L 285.58504 -95.81283 
L 288.744023 -96.644849 
L 291.756986 -97.476869 
L 294.593684 -98.308889 
L 297.231692 -99.140908 
L 299.656343 -99.972928 
L 301.860369 -100.804948 
L 303.84325 -101.636968 
L 305.610338 -102.468987 
L 307.17179 -103.301007 
L 308.541393 -104.133027 
L 309.735348 -104.965047 
L 310.771096 -105.797066 
L 311.666264 -106.629086 
L 312.437788 -107.461106 
L 313.101278 -108.293125 
L 313.670643 -109.125145 
L 314.157982 -109.957165 
L 314.573721 -110.789185 
L 314.926941 -111.621204 
L 315.225843 -112.453224 
L 315.478255 -113.285244 
L 315.692113 -114.117264 
L 315.875838 -114.949283 
L 316.038544 -115.781303 
L 316.190057 -116.613323 
L 316.340718 -117.445342 
L 316.501012 -118.277362 
L 316.681045 -119.109382 
L 316.889952 -119.941402 
L 317.135292 -120.773421 
L 317.422515 -121.605441 
L 317.754561 -122.437461 
L 318.131633 -123.269481 
L 318.551186 -124.1015 
L 319.00811 -124.93352 
L 319.495116 -125.76554 
L 320.003257 -126.597559 
L 320.522552 -127.429579 
L 321.042643 -128.261599 
L 321.553435 -129.093619 
L 322.045652 -129.925638 
L 322.511297 -130.757658 
L 322.943963 -131.589678 
L 323.339008 -132.421698 
L 323.693586 -133.253717 
L 324.006558 -134.085737 
L 324.278307 -134.917757 
L 324.51049 -135.749776 
L 326.36951 -135.749776 
L 326.36951 -135.749776 
L 326.601693 -134.917757 
L 326.873442 -134.085737 
L 327.186414 -133.253717 
L 327.540992 -132.421698 
L 327.936037 -131.589678 
L 328.368703 -130.757658 
L 328.834348 -129.925638 
L 329.326565 -129.093619 
L 329.837357 -128.261599 
L 330.357448 -127.429579 
L 330.876743 -126.597559 
L 331.384884 -125.76554 
L 331.87189 -124.93352 
L 332.328814 -124.1015 
L 332.748367 -123.269481 
L 333.125439 -122.437461 
L 333.457485 -121.605441 
L 333.744708 -120.773421 
L 333.990048 -119.941402 
L 334.198955 -119.109382 
L 334.378988 -118.277362 
L 334.539282 -117.445342 
L 334.689943 -116.613323 
L 334.841456 -115.781303 
L 335.004162 -114.949283 
L 335.187887 -114.117264 
L 335.401745 -113.285244 
L 335.654157 -112.453224 
L 335.953059 -111.621204 
L 336.306279 -110.789185 
L 336.722018 -109.957165 
L 337.209357 -109.125145 
L 337.778722 -108.293125 
L 338.442212 -107.461106 
L 339.213736 -106.629086 
L 340.108904 -105.797066 
L 341.144652 -104.965047 
L 342.338607 -104.133027 
L 343.70821 -103.301007 
L 345.269662 -102.468987 
L 347.03675 -101.636968 
L 349.019631 -100.804948 
L 351.223657 -99.972928 
L 353.648308 -99.140908 
L 356.286316 -98.308889 
L 359.123014 -97.476869 
L 362.135977 -96.644849 
L 365.29496 -95.81283 
L 368.562161 -94.98081 
L 371.892812 -94.14879 
L 375.236072 -93.31677 
L 378.536234 -92.484751 
L 381.734177 -91.652731 
L 384.769059 -90.820711 
L 387.58018 -89.988692 
L 390.108962 -89.156672 
L 392.300971 -88.324652 
L 394.107895 -87.492632 
L 395.489395 -86.660613 
L 396.414722 -85.828593 
L 396.864 -84.996573 
L 396.829104 -84.164553 
L 396.314039 -83.332534 
L 395.334786 -82.500514 
L 393.918591 -81.668494 
L 392.102728 -80.836475 
L 389.932781 -80.004455 
L 387.460562 -79.172435 
L 384.741772 -78.340415 
L 381.833583 -77.508396 
L 378.792275 -76.676376 
L 375.6711 -75.844356 
L 372.5185 -75.012336 
L 369.376784 -74.180317 
L 366.281317 -73.348297 
L 363.260248 -72.516277 
L 360.334724 -71.684258 
L 357.519529 -70.852238 
L 354.824042 -70.020218 
L 352.253374 -69.188198 
L 349.809575 -68.356179 
L 347.49277 -67.524159 
L 345.302146 -66.692139 
L 343.236694 -65.860119 
L 341.295705 -65.0281 
L 339.478983 -64.19608 
L 337.786824 -63.36406 
L 336.219815 -62.532041 
L 334.778494 -61.700021 
L 333.462974 -60.868001 
L 332.272558 -60.035981 
L 331.205434 -59.203962 
L 330.258465 -58.371942 
L 329.427093 -57.539922 
L 328.70538 -56.707902 
L 328.08615 -55.875883 
L 327.56122 -55.043863 
L 327.121698 -54.211843 
L 326.758296 -53.379824 
z
" style="stroke: #4c4c4c; stroke-width: 1.5"/>
    </defs>
    <g clip-path="url(#p9c68a93c1e)">
     <use xlink:href="#me967102b59" x="0" y="345.6" style="fill: #cc8963; stroke: #4c4c4c; stroke-width: 1.5"/>
    </g>
   </g>
   <g id="line2d_12">
    <path d="M 146.88 304.2576 
L 146.88 164.5488 
" clip-path="url(#p9c68a93c1e)" style="fill: none; stroke: #4c4c4c; stroke-width: 1.5; stroke-linecap: round"/>
   </g>
   <g id="line2d_13">
    <path d="M 146.88 254.3616 
L 146.88 217.7712 
" clip-path="url(#p9c68a93c1e)" style="fill: none; stroke: #4c4c4c; stroke-width: 4.5; stroke-linecap: round"/>
   </g>
   <g id="line2d_14">
    <path d="M 325.44 277.6464 
L 325.44 247.7088 
" clip-path="url(#p9c68a93c1e)" style="fill: none; stroke: #4c4c4c; stroke-width: 1.5; stroke-linecap: round"/>
   </g>
   <g id="line2d_15">
    <path d="M 325.44 264.3408 
L 325.44 254.3616 
" clip-path="url(#p9c68a93c1e)" style="fill: none; stroke: #4c4c4c; stroke-width: 4.5; stroke-linecap: round"/>
   </g>
   <g id="patch_3">
    <path d="M 57.6 307.584 
L 57.6 41.472 
" style="fill: none; stroke: #262626; stroke-width: 1.25; stroke-linejoin: miter; stroke-linecap: square"/>
   </g>
   <g id="patch_4">
    <path d="M 414.72 307.584 
L 414.72 41.472 
" style="fill: none; stroke: #262626; stroke-width: 1.25; stroke-linejoin: miter; stroke-linecap: square"/>
   </g>
   <g id="patch_5">
    <path d="M 57.6 307.584 
L 414.72 307.584 
" style="fill: none; stroke: #262626; stroke-width: 1.25; stroke-linejoin: miter; stroke-linecap: square"/>
   </g>
   <g id="patch_6">
    <path d="M 57.6 41.472 
L 414.72 41.472 
" style="fill: none; stroke: #262626; stroke-width: 1.25; stroke-linejoin: miter; stroke-linecap: square"/>
   </g>
   <g id="PathCollection_1">
    <defs>
     <path id="m2c65896e55" d="M 0 1.5 
C 0.397805 1.5 0.77937 1.341951 1.06066 1.06066 
C 1.341951 0.77937 1.5 0.397805 1.5 0 
C 1.5 -0.397805 1.341951 -0.77937 1.06066 -1.06066 
C 0.77937 -1.341951 0.397805 -1.5 0 -1.5 
C -0.397805 -1.5 -0.77937 -1.341951 -1.06066 -1.06066 
C -1.341951 -0.77937 -1.5 -0.397805 -1.5 0 
C -1.5 0.397805 -1.341951 0.77937 -1.06066 1.06066 
C -0.77937 1.341951 -0.397805 1.5 0 1.5 
z
" style="stroke: #4c4c4c"/>
    </defs>
    <g clip-path="url(#p9c68a93c1e)">
     <use xlink:href="#m2c65896e55" x="146.88" y="237.7296" style="fill: #ffffff; stroke: #4c4c4c"/>
    </g>
   </g>
   <g id="PathCollection_2">
    <g clip-path="url(#p9c68a93c1e)">
     <use xlink:href="#m2c65896e55" x="325.44" y="261.0144" style="fill: #ffffff; stroke: #4c4c4c"/>
    </g>
   </g>
  </g>
 </g>
 <defs>
  <clipPath id="p9c68a93c1e">
   <rect x="57.6" y="41.472" width="357.12" height="266.112"/>
  </clipPath>
 </defs>
</svg>
